<?xml version="1.0" encoding="utf-8"?>
<!-- Generator: Adobe Illustrator 16.0.0, SVG Export Plug-In . SVG Version: 6.00 Build 0)  -->
<!DOCTYPE svg PUBLIC "-//W3C//DTD SVG 1.1//EN" "http://www.w3.org/Graphics/SVG/1.1/DTD/svg11.dtd">
<svg version="1.1" id="栝鍣_1" xmlns="http://www.w3.org/2000/svg" xmlns:xlink="http://www.w3.org/1999/xlink" x="0px" y="0px"
	 width="48px" height="49px" viewBox="0 0 48 49" enable-background="new 0 0 48 49" xml:space="preserve">
<path fill="none" stroke="#FFFFFF" stroke-width="2" stroke-miterlimit="10" d="M566,23v13.116c0,1.823-0.828,3.546-2.252,4.685
	L556,47l-7.748-6.199c-1.424-1.139-2.252-2.862-2.252-4.685V23l10-2L566,23z"/>
<polyline fill="none" stroke="#FFFFFF" stroke-width="2" stroke-miterlimit="10" points="562,30 556,36 552,32 "/>
<path fill="none" stroke="#FFFFFF" stroke-width="2" stroke-miterlimit="10" d="M649,209v13.116c0,1.823-0.828,3.547-2.252,4.686
	L639,233l-7.748-6.198c-1.424-1.139-2.252-2.862-2.252-4.686V209l10-2L649,209z"/>
<polyline fill="none" stroke="#FFFFFF" stroke-width="2" stroke-miterlimit="10" points="645,216 639,222 635,218 "/>
<path fill="none" stroke="#FFFFFF" stroke-width="2" stroke-miterlimit="10" d="M745,22v13.116c0,1.823-0.828,3.546-2.252,4.685
	L735,46l-7.748-6.199c-1.424-1.139-2.252-2.862-2.252-4.685V22l10-2L745,22z"/>
<polyline fill="none" stroke="#FFFFFF" stroke-width="2" stroke-miterlimit="10" points="741,29 735,35 731,31 "/>
<path fill="none" stroke="#FFFFFF" stroke-width="2" stroke-miterlimit="10" d="M470,113v12.116c0,1.823-0.828,3.547-2.252,4.686
	L460,136l-7.748-6.198c-1.424-1.139-2.252-2.862-2.252-4.686V113l10-2L470,113z"/>
<path fill="none" stroke="#FFFFFF" stroke-width="2" stroke-miterlimit="10" d="M753,200v23.109c0,3.086-1.425,5.999-3.86,7.894
	L735,242l-14.14-10.997c-2.436-1.895-3.86-4.808-3.86-7.894V200l18-4L753,200z"/>
<polyline fill="none" stroke="#FFFFFF" stroke-width="2" stroke-miterlimit="10" points="466,120 460,126 456,122 "/>
<path fill="none" stroke="#FFFFFF" stroke-width="2" stroke-miterlimit="10" d="M468,26c0-1.104-0.896-2-2-2h-12
	c-1.104,0-2,0.896-2,2v11c0,1.104,0.896,2,2,2h12c1.104,0,2-0.896,2-2V26z"/>
<path fill="none" stroke="#FFFFFF" stroke-width="2" stroke-miterlimit="10" d="M465,24v-3c0-2.761-2.238-5-5-5s-5,2.239-5,5v3"/>
<line fill="none" stroke="#FFFFFF" stroke-width="2" stroke-miterlimit="10" x1="460" y1="35" x2="460" y2="31"/>
<path fill="none" stroke="#FFFFFF" stroke-width="2" stroke-miterlimit="10" d="M359,132c0-1.104-0.896-2-2-2h-12
	c-1.104,0-2,0.896-2,2v11c0,1.104,0.896,2,2,2h12c1.104,0,2-0.896,2-2V132z"/>
<path fill="none" stroke="#FFFFFF" stroke-width="2" stroke-miterlimit="10" d="M356,130v-3c0-2.762-2.238-5-5-5s-5,2.238-5,5v3"/>
<line fill="none" stroke="#FFFFFF" stroke-width="2" stroke-miterlimit="10" x1="351" y1="141" x2="351" y2="137"/>
<path fill="none" stroke="#FFFFFF" stroke-width="2" stroke-miterlimit="10" d="M358,217c0-1.104-0.896-2-2-2h-10
	c-1.104,0-2,0.896-2,2v9c0,1.104,0.896,2,2,2h10c1.104,0,2-0.896,2-2V217z"/>
<path fill="none" stroke="#FFFFFF" stroke-width="2" stroke-miterlimit="10" d="M355,215v-3c0-2.209-1.791-4-4-4s-4,1.791-4,4v3"/>
<line fill="none" stroke="#FFFFFF" stroke-width="2" stroke-miterlimit="10" x1="351" y1="225" x2="351" y2="221"/>
<path fill="none" stroke="#FFFFFF" stroke-width="2" stroke-miterlimit="10" d="M653,25c0-1.104-0.896-2-2-2h-12
	c-1.104,0-2,0.896-2,2v11c0,1.104,0.896,2,2,2h12c1.104,0,2-0.896,2-2V25z"/>
<path fill="none" stroke="#FFFFFF" stroke-width="2" stroke-miterlimit="10" d="M650,23v-4c0-2.761-2.238-5-5-5s-5,2.239-5,5v4"/>
<line fill="none" stroke="#FFFFFF" stroke-width="2" stroke-miterlimit="10" x1="645" y1="34" x2="645" y2="30"/>
<path fill="none" stroke="#FFFFFF" stroke-width="2" stroke-miterlimit="10" d="M551,133c0-1.104-0.896-2-2-2h-12
	c-1.104,0-2,0.896-2,2v11c0,1.104,0.896,2,2,2h12c1.104,0,2-0.896,2-2V133z"/>
<path fill="none" stroke="#FFFFFF" stroke-width="2" stroke-miterlimit="10" d="M548,128c0-2.762-2.238-5-5-5s-5,2.238-5,5v3h10V128
	z"/>
<line fill="none" stroke="#FFFFFF" stroke-width="2" stroke-miterlimit="10" x1="543" y1="142" x2="543" y2="138"/>
<path fill="none" stroke="#FFFFFF" stroke-width="2" stroke-miterlimit="10" d="M743,133c0-1.104-0.896-2-2-2h-12
	c-1.104,0-2,0.896-2,2v11c0,1.104,0.896,2,2,2h12c1.104,0,2-0.896,2-2V133z"/>
<path fill="none" stroke="#FFFFFF" stroke-width="2" stroke-miterlimit="10" d="M740,128c0-2.762-2.238-5-5-5s-5,2.238-5,5v3h10V128
	z"/>
<line fill="none" stroke="#FFFFFF" stroke-width="2" stroke-miterlimit="10" x1="735" y1="142" x2="735" y2="138"/>
<path fill="none" stroke="#FFFFFF" stroke-width="2" stroke-miterlimit="10" d="M743,215c0-1.104-0.896-2-2-2h-12
	c-1.104,0-2,0.896-2,2v11c0,1.104,0.896,2,2,2h12c1.104,0,2-0.896,2-2V215z"/>
<path fill="none" stroke="#FFFFFF" stroke-width="2" stroke-miterlimit="10" d="M740,210c0-2.762-2.238-5-5-5s-5,2.238-5,5v3h10V210
	z"/>
<line fill="none" stroke="#FFFFFF" stroke-width="2" stroke-miterlimit="10" x1="735" y1="224" x2="735" y2="220"/>
<line fill="none" stroke="#FFFFFF" stroke-width="2" stroke-miterlimit="10" x1="627" y1="46" x2="634" y2="46"/>
<path fill="none" stroke="#FFFFFF" stroke-width="2" stroke-miterlimit="10" d="M616,42h29v5c0,1.657-1.343,3-3,3h-23
	c-1.657,0-3-1.343-3-3V7c0-1.657,1.343-3,3-3h23c1.657,0,3,1.343,3,3v3h-29"/>
<path fill="none" stroke="#FFFFFF" stroke-width="2" stroke-miterlimit="10" d="M748,30c5.522,0,10-4.477,10-10s-4.478-10-10-10
	c-0.977,0-1.918,0.146-2.81,0.407C742.929,6.577,738.771,4,734,4c-6.188,0-11.357,4.328-12.669,10.12
	C720.897,14.047,720.454,14,720,14c-4.418,0-8,3.582-8,8s3.582,8,8,8h2"/>
<polyline fill="none" stroke="#FFFFFF" stroke-width="2" stroke-miterlimit="10" points="460,108 460,100 433,100 424,109 424,146 
	460,146 460,139 "/>
<polyline fill="none" stroke="#FFFFFF" stroke-width="2" stroke-miterlimit="10" points="424,109 433,109 433,100 "/>
<polyline fill="none" stroke="#FFFFFF" stroke-width="2" stroke-miterlimit="10" points="460,13 460,4 433,4 424,13 424,50 460,50 
	460,42 "/>
<polyline fill="none" stroke="#FFFFFF" stroke-width="2" stroke-miterlimit="10" points="424,13 433,13 433,4 "/>
<path fill="none" stroke="#FFFFFF" stroke-width="2" stroke-miterlimit="10" d="M552.36,9.5c-3.42,3.4-8.15,5.5-13.36,5.5
	s-9.939-2.1-13.359-5.5"/>
<polyline fill="none" stroke="#FFFFFF" stroke-width="2" stroke-miterlimit="10" points="520,23 529,23 543,23 "/>
<path fill="none" stroke="#FFFFFF" stroke-width="2" stroke-miterlimit="10" d="M539,42c-0.17,0-0.34,0-0.51-0.02
	c-3.561-0.35-6.631-4.23-8.25-9.84C529.45,29.43,529,26.31,529,23c0-3.67,0.55-7.11,1.5-10.01C532.27,7.59,535.41,4,539,4
	s6.73,3.59,8.49,8.99c0.63,1.93,1.08,4.08,1.319,6.39"/>
<path fill="none" stroke="#FFFFFF" stroke-width="2" stroke-miterlimit="10" d="M525.16,36c1.46-1.56,3.17-2.87,5.08-3.86
	c2.619-1.37,5.6-2.14,8.76-2.14c1.38,0,2.71,0.15,4,0.44"/>
<path fill="none" stroke="#FFFFFF" stroke-width="2" stroke-miterlimit="10" d="M557.38,18.22c-0.86-3.36-2.63-6.36-5.02-8.72
	c-3.351-3.33-7.94-5.41-13.021-5.49C539.23,4,539.109,4,539,4s-0.23,0-0.34,0.01c-5.08,0.08-9.67,2.16-13.02,5.49
	C522.16,12.94,520,17.72,520,23c0,5.03,1.96,9.61,5.16,13c3.35,3.58,8.07,5.85,13.33,5.98C538.66,42,538.83,42,539,42
	c1.93,0,3.79-0.3,5.54-0.84"/>
<g>
	<path fill="none" stroke="#FFFFFF" stroke-width="2" stroke-miterlimit="10" d="M359,14c0-1.104-0.896-2-2-2h-12
		c-1.104,0-2,0.896-2,2v11c0,1.104,0.896,2,2,2h12c1.104,0,2-0.896,2-2V14z"/>
	<path fill="none" stroke="#FFFFFF" stroke-width="2" stroke-miterlimit="10" d="M356,12V9c0-2.761-2.238-5-5-5s-5,2.239-5,5v3"/>
	<line fill="none" stroke="#FFFFFF" stroke-width="2" stroke-miterlimit="10" x1="351" y1="23" x2="351" y2="19"/>
	<line fill="none" stroke="#FFFFFF" stroke-width="2" stroke-miterlimit="10" x1="355" y1="46" x2="347" y2="46"/>
	<path fill="none" stroke="#FFFFFF" stroke-width="2" stroke-miterlimit="10" d="M345,46h-17v1c0,1.657,1.344,3,3,3h40
		c1.656,0,3-1.343,3-3v-1h-17"/>
	<path fill="none" stroke="#FFFFFF" stroke-width="2" stroke-miterlimit="10" d="M340,16h-7c-1.656,0-3,1.343-3,3v27"/>
	<path fill="none" stroke="#FFFFFF" stroke-width="2" stroke-miterlimit="10" d="M372,46V19c0-1.657-1.344-3-3-3h-7"/>
	<line fill="none" stroke="#FFFFFF" stroke-width="2" stroke-miterlimit="10" x1="330" y1="20" x2="340" y2="20"/>
	<line fill="none" stroke="#FFFFFF" stroke-width="2" stroke-miterlimit="10" x1="362" y1="20" x2="372" y2="20"/>
</g>
<line fill="none" stroke="#FFFFFF" stroke-width="2" stroke-miterlimit="10" x1="566" y1="108" x2="520" y2="108"/>
<line fill="none" stroke="#FFFFFF" stroke-width="2" stroke-miterlimit="10" x1="558" y1="104" x2="555" y2="104"/>
<line fill="none" stroke="#FFFFFF" stroke-width="2" stroke-miterlimit="10" x1="563" y1="104" x2="560" y2="104"/>
<line fill="none" stroke="#FFFFFF" stroke-width="2" stroke-miterlimit="10" x1="553" y1="104" x2="550" y2="104"/>
<line fill="none" stroke="#FFFFFF" stroke-width="2" stroke-miterlimit="10" x1="541" y1="104" x2="523" y2="104"/>
<rect x="524" y="112" fill="none" stroke="#FFFFFF" stroke-width="2" stroke-miterlimit="10" width="7" height="7"/>
<polyline fill="none" stroke="#FFFFFF" stroke-width="2" stroke-miterlimit="10" points="554,137 566,137 566,100 520,100 520,137 
	532,137 "/>
<polyline fill="none" stroke="#FFFFFF" stroke-width="2" stroke-miterlimit="10" points="362,133 374,133 374,100 328,100 328,133 
	340,133 "/>
<path fill="none" stroke="#FFFFFF" stroke-width="2" stroke-miterlimit="10" d="M328,103.394l19.577,13.541
	c2.059,1.424,4.784,1.42,6.839-0.009L374,103.302"/>
<line fill="none" stroke="#FFFFFF" stroke-width="2" stroke-miterlimit="10" x1="347" y1="116.588" x2="328" y2="130"/>
<line fill="none" stroke="#FFFFFF" stroke-width="2" stroke-miterlimit="10" x1="355" y1="116.588" x2="374" y2="130"/>
<line fill="none" stroke="#FFFFFF" stroke-width="2" stroke-miterlimit="10" x1="534" y1="113" x2="544" y2="113"/>
<line fill="none" stroke="#FFFFFF" stroke-width="2" stroke-miterlimit="10" x1="534" y1="117" x2="537" y2="117"/>
<line fill="none" stroke="#FFFFFF" stroke-width="2" stroke-miterlimit="10" x1="539" y1="117" x2="550" y2="117"/>
<g>
	<path fill="none" stroke="#FFFFFF" stroke-width="2" stroke-miterlimit="10" d="M41,6v23.109c0,3.086-1.425,5.999-3.86,7.894L23,48
		L8.86,37.003C6.425,35.108,5,32.195,5,29.109V6l18-4L41,6z"/>
	<path fill="none" stroke="#FFFFFF" stroke-width="2" stroke-miterlimit="10" d="M34,16v3c0,1.657-1.343,3-3,3h-2"/>
	<path fill="none" stroke="#FFFFFF" stroke-width="2" stroke-miterlimit="10" d="M34,32v-3c0-1.657-1.343-3-3-3h-2"/>
	<path fill="none" stroke="#FFFFFF" stroke-width="2" stroke-miterlimit="10" d="M30,37v-3c0-1.657-1.343-3-3-3"/>
	<path fill="none" stroke="#FFFFFF" stroke-width="2" stroke-miterlimit="10" d="M12,16v3c0,1.657,1.343,3,3,3h2"/>
	<path fill="none" stroke="#FFFFFF" stroke-width="2" stroke-miterlimit="10" d="M12,32v-3c0-1.657,1.343-3,3-3h2"/>
	<path fill="none" stroke="#FFFFFF" stroke-width="2" stroke-miterlimit="10" d="M16,37v-3c0-1.657,1.343-3,3-3"/>
	<path fill="none" stroke="#FFFFFF" stroke-width="2" stroke-miterlimit="10" d="M25.664,32.282c-1.64,0.957-3.688,0.957-5.328,0
		l-0.388-0.226c-1.217-0.711-2.097-1.877-2.379-3.23C17.19,27.009,17,25.159,17,23.305v-2.222c0-1.097,0.722-2.071,1.792-2.418
		c2.731-0.886,5.685-0.886,8.416,0C28.278,19.011,29,19.985,29,21.083v2.222c0,1.854-0.191,3.704-0.57,5.521
		c-0.281,1.354-1.161,2.52-2.378,3.23L25.664,32.282z"/>
	<path fill="none" stroke="#FFFFFF" stroke-width="2" stroke-miterlimit="10" d="M21,18v-2c0-1.104,0.896-2,2-2s2,0.896,2,2v2"/>
	<path fill="none" stroke="#FFFFFF" stroke-width="2" stroke-miterlimit="10" d="M25,10c0,1.325-0.214,2.641-0.633,3.897L24,15"/>
	<path fill="none" stroke="#FFFFFF" stroke-width="2" stroke-miterlimit="10" d="M21,10c0,1.325,0.214,2.641,0.633,3.897L22,15"/>
	<line fill="none" stroke="#FFFFFF" stroke-width="2" stroke-miterlimit="10" x1="23" y1="2" x2="23" y2="7"/>
	<line fill="none" stroke="#FFFFFF" stroke-width="2" stroke-miterlimit="10" x1="23" y1="48" x2="23" y2="36"/>
</g>
<polyline fill="none" stroke="#FFFFFF" stroke-width="2" stroke-miterlimit="10" points="746,135 758,135 758,104 744,104 740,108 
	712,108 712,135 724,135 "/>
<polyline fill="none" stroke="#FFFFFF" stroke-width="2" stroke-miterlimit="10" points="756,104 756,100 714,100 714,108 "/>
<line fill="none" stroke="#FFFFFF" stroke-width="2" stroke-miterlimit="10" x1="755" y1="108" x2="745" y2="108"/>
<path fill="none" stroke="#FFFFFF" stroke-width="2" stroke-miterlimit="10" d="M725.59,13.8c1.29-3.39,4.57-5.8,8.41-5.8"/>
<line fill="none" stroke="#FFFFFF" stroke-width="2" stroke-miterlimit="10" x1="347" y1="205" x2="347" y2="200"/>
<line fill="none" stroke="#FFFFFF" stroke-width="2" stroke-miterlimit="10" x1="355" y1="205" x2="355" y2="200"/>
<polyline fill="none" stroke="#FFFFFF" stroke-width="2" stroke-miterlimit="10" points="365,202 361,202 361,208 "/>
<polyline fill="none" stroke="#FFFFFF" stroke-width="2" stroke-miterlimit="10" points="337,202 341,202 341,208 "/>
<line fill="none" stroke="#FFFFFF" stroke-width="2" stroke-miterlimit="10" x1="347" y1="233" x2="347" y2="238"/>
<line fill="none" stroke="#FFFFFF" stroke-width="2" stroke-miterlimit="10" x1="355" y1="233" x2="355" y2="238"/>
<polyline fill="none" stroke="#FFFFFF" stroke-width="2" stroke-miterlimit="10" points="365,236 361,236 361,230 "/>
<polyline fill="none" stroke="#FFFFFF" stroke-width="2" stroke-miterlimit="10" points="337,236 341,236 341,230 "/>
<circle fill="none" stroke="#FFFFFF" stroke-width="2" stroke-miterlimit="10" cx="351" cy="219" r="15"/>
<circle fill="none" stroke="#FFFFFF" stroke-width="2" stroke-miterlimit="10" cx="367" cy="202" r="2"/>
<circle fill="none" stroke="#FFFFFF" stroke-width="2" stroke-miterlimit="10" cx="367" cy="236" r="2"/>
<circle fill="none" stroke="#FFFFFF" stroke-width="2" stroke-miterlimit="10" cx="355" cy="240" r="2"/>
<circle fill="none" stroke="#FFFFFF" stroke-width="2" stroke-miterlimit="10" cx="347" cy="240" r="2"/>
<circle fill="none" stroke="#FFFFFF" stroke-width="2" stroke-miterlimit="10" cx="335" cy="236" r="2"/>
<circle fill="none" stroke="#FFFFFF" stroke-width="2" stroke-miterlimit="10" cx="355" cy="198" r="2"/>
<circle fill="none" stroke="#FFFFFF" stroke-width="2" stroke-miterlimit="10" cx="347" cy="198" r="2"/>
<circle fill="none" stroke="#FFFFFF" stroke-width="2" stroke-miterlimit="10" cx="335" cy="202" r="2"/>
<polyline fill="none" stroke="#FFFFFF" stroke-width="2" stroke-miterlimit="10" points="454,208 470,208 470,242 424,242 424,208 
	440,208 "/>
<rect x="443" y="196" fill="none" stroke="#FFFFFF" stroke-width="2" stroke-miterlimit="10" width="8" height="16"/>
<rect x="430" y="218" fill="none" stroke="#FFFFFF" stroke-width="2" stroke-miterlimit="10" width="14" height="18"/>
<line fill="none" stroke="#FFFFFF" stroke-width="2" stroke-miterlimit="10" x1="447" y1="199" x2="447" y2="203"/>
<line fill="none" stroke="#FFFFFF" stroke-width="2" stroke-miterlimit="10" x1="438" y1="212" x2="456" y2="212"/>
<line fill="none" stroke="#FFFFFF" stroke-width="2" stroke-miterlimit="10" x1="448" y1="222" x2="460" y2="222"/>
<line fill="none" stroke="#FFFFFF" stroke-width="2" stroke-miterlimit="10" x1="448" y1="232" x2="460" y2="232"/>
<line fill="none" stroke="#FFFFFF" stroke-width="2" stroke-miterlimit="10" x1="448" y1="227" x2="465" y2="227"/>
<path fill="none" stroke="#FFFFFF" stroke-width="2" stroke-miterlimit="10" d="M440,225.973c0,1.657-1.344,3-3,3s-3-1.343-3-3v-1
	c0-1.656,1.344-3,3-3s3,1.344,3,3V225.973z"/>
<path fill="none" stroke="#FFFFFF" stroke-width="2" stroke-miterlimit="10" d="M430,235v-0.458c0-1.336,0.884-2.511,2.168-2.882
	l0.008-0.002c3.152-0.91,6.497-0.914,9.651-0.009c1.286,0.369,2.173,1.545,2.173,2.884V235"/>
<polyline fill="none" stroke="#FFFFFF" stroke-width="2" stroke-miterlimit="10" points="566,211 543,196 520,211 "/>
<polyline fill="none" stroke="#FFFFFF" stroke-width="2" stroke-miterlimit="10" points="554,232 560,232 560,207 "/>
<polyline fill="none" stroke="#FFFFFF" stroke-width="2" stroke-miterlimit="10" points="526,207 526,232 532,232 "/>
<path fill="none" stroke="#FFFFFF" stroke-width="2" stroke-miterlimit="10" d="M551,229c0-1.104-0.896-2-2-2h-12
	c-1.104,0-2,0.896-2,2v11c0,1.104,0.896,2,2,2h12c1.104,0,2-0.896,2-2V229z"/>
<path fill="none" stroke="#FFFFFF" stroke-width="2" stroke-miterlimit="10" d="M548,223c0-2.762-2.238-5-5-5s-5,2.238-5,5v4h10V223
	z"/>
<line fill="none" stroke="#FFFFFF" stroke-width="2" stroke-miterlimit="10" x1="543" y1="238" x2="543" y2="234"/>
<path fill="none" stroke="#FFFFFF" stroke-width="2" stroke-miterlimit="10" d="M616,219c0-12.7,10.3-23,23-23
	c9.51,0,17.67,5.77,21.17,14"/>
<path fill="none" stroke="#FFFFFF" stroke-width="2" stroke-miterlimit="10" d="M617.83,228c3.5,8.23,11.66,14,21.17,14
	c12.7,0,23-10.3,23-23"/>
<polyline fill="none" stroke="#FFFFFF" stroke-width="2" stroke-miterlimit="10" points="662.113,204.166 660.17,210 
	654.175,208.542 "/>
<polyline fill="none" stroke="#FFFFFF" stroke-width="2" stroke-miterlimit="10" points="615.887,233.834 617.83,228 
	623.825,229.458 "/>
<line fill="none" stroke="#FFFFFF" stroke-width="2" stroke-miterlimit="10" x1="735" y1="242" x2="735" y2="231"/>
<line fill="none" stroke="#FFFFFF" stroke-width="2" stroke-miterlimit="10" x1="735" y1="202" x2="735" y2="196"/>
</svg>
